<?xml version="1.0" encoding="UTF-8"?>
<svg width="1200pt" height="1200pt" version="1.1" viewBox="0 0 1200 1200" xmlns="http://www.w3.org/2000/svg">
 <g fill="#9b9b9b">
  <path d="m1165.1 676.32v-52.633-35.328h0.19141v-11.93c0-41.148-36.215-74.473-80.953-74.473h-228.45s-163.46-216.39-163.54-216.49c0 0-16.871-22.441-36.648-9.2539-16.68 11.125-2.1484 36.18 0.50391 40.523l84.758 114.23-70.297 70.656-314.73 0.058593c18.457-1.9805 32.93-17.426 32.93-36.422 0-20.328-16.512-36.793-36.816-36.793h-163.6c-20.328 0-36.816 16.465-36.816 36.793s16.488 36.816 36.816 36.816h1.8242c-87.73 4.7148-157.49 77.148-157.49 166.05 0 2.7227 0.66016 5.2188 0.80469 7.9336l-33.562 0.26172v65.652c0 23.184 11.641 34.859 34.934 34.859h32.09c2.7852-39.059 20.746-72.371 53.734-99.84 33.047-27.383 70.02-41.102 110.99-41.102 40.957 0 78.156 13.715 111.67 41.102 33.492 27.469 51.625 60.781 54.422 99.84h402.91c2.8086-39.059 20.941-72.371 54.445-99.84 33.492-27.383 70.738-41.102 111.66-41.102 40.957 0 77.93 13.715 110.98 41.102 33.023 27.469 50.977 60.781 53.746 99.84h32.09c23.27 0 34.934-11.688 34.934-34.859v-65.652zm-731.76-63.746c-13.309 0-24.086-10.766-24.086-24.086 0-13.32 10.777-24.098 24.086-24.098s24.086 10.766 24.086 24.098c-0.003906 13.312-10.777 24.086-24.086 24.086z"/>
  <path d="m885.94 723c22.008-21.551 48.742-32.496 79.512-32.496 31.656 0 58.906 10.945 81.012 32.496 22.066 21.742 33.266 48.742 33.266 80.305 0 30.793-11.184 57.602-33.266 79.621-22.055 22.141-49.297 33.336-81.012 33.336-30.77 0-57.602-11.207-79.609-33.312-22.031-22.02-33.238-48.805-33.238-79.645 0.011719-31.598 11.207-58.609 33.336-80.305zm46.055 113.98c9.2266 9.3125 20.426 13.824 33.457 13.824 13.055 0 24.227-4.5117 33.516-13.824 9.3125-9.3359 13.934-20.461 13.934-33.672 0-12.926-4.6211-24.059-13.934-33.371-9.2891-9.3125-20.461-14.074-33.516-14.074-13.031 0-24.238 4.7539-33.457 14.074-9.3125 9.3125-13.992 20.449-13.992 33.371 0 13.211 4.6797 24.336 13.992 33.672z"/>
  <path d="m312.66 723c-21.984-21.551-48.742-32.496-79.512-32.496-31.645 0-58.895 10.945-81.023 32.496-22.02 21.742-33.266 48.742-33.266 80.305 0 30.793 11.207 57.602 33.266 79.621 22.066 22.141 49.297 33.336 81.023 33.336 30.781 0 57.574-11.207 79.598-33.312 22.066-22.02 33.238-48.805 33.238-79.645 0-31.598-11.172-58.609-33.324-80.305zm-46.043 113.98c-9.2539 9.3125-20.426 13.824-33.48 13.824-13.043 0-24.215-4.5117-33.504-13.824-9.3359-9.3359-13.945-20.461-13.945-33.672 0-12.926 4.6094-24.059 13.945-33.371 9.2891-9.3125 20.461-14.074 33.504-14.074 13.055 0 24.215 4.7539 33.48 14.074 9.3125 9.3125 13.969 20.449 13.969 33.371 0 13.211-4.6445 24.336-13.969 33.672z"/>
 </g>
</svg>
